<?xml version="1.0" encoding="utf-8"?>
<!-- Generator: Adobe Illustrator 18.1.1, SVG Export Plug-In . SVG Version: 6.00 Build 0)  -->
<svg version="1.1" id="Layer_1" xmlns="http://www.w3.org/2000/svg" xmlns:xlink="http://www.w3.org/1999/xlink" x="0px" y="0px"
	 viewBox="198.5 390.5 17 13.1" enable-background="new 198.5 390.5 17 13.1" xml:space="preserve">
<path fill="#8542FF" d="M204.6,403.3l-5.9-5.9c-0.1-0.1-0.2-0.3-0.2-0.5c0-0.2,0.1-0.3,0.2-0.5l5.9-5.9c0.1-0.1,0.3-0.2,0.5-0.2
	c0.2,0,0.3,0.1,0.5,0.2l0.9,0.9c0.3,0.3,0.3,0.7,0,0.9l-2.6,2.6c-0.2,0.3-0.1,0.6,0.2,0.6h10.9c0.4,0,0.7,0.3,0.7,0.7v1.3
	c0,0.4-0.3,0.7-0.7,0.7H204c-0.3,0-0.5,0.3-0.3,0.6l2.6,2.6c0.3,0.3,0.3,0.7,0,0.9l-0.9,0.9c-0.1,0.1-0.2,0.2-0.4,0.2
	C204.8,403.5,204.7,403.5,204.6,403.3z"/>
</svg>
