<?xml version="1.0" standalone="no"?>
<!DOCTYPE svg PUBLIC "-//W3C//DTD SVG 20010904//EN"
 "http://www.w3.org/TR/2001/REC-SVG-20010904/DTD/svg10.dtd">
<svg version="1.0" xmlns="http://www.w3.org/2000/svg"
 width="352.000000pt" height="270.000000pt" viewBox="0 0 352.000000 270.000000"
 preserveAspectRatio="xMidYMid meet">
<metadata>
Created by potrace 1.13, written by Peter Selinger 2001-2015
</metadata>
<g transform="translate(0.000000,270.000000) scale(0.100000,-0.100000)"
fill="#14213c" stroke="none">
<path d="M658 2685 c-263 -50 -496 -222 -609 -450 -31 -62 -41 -96 -46 -151
-12 -149 35 -253 182 -400 85 -85 139 -126 360 -274 295 -197 396 -286 453
-399 36 -73 39 -100 15 -130 -17 -21 -20 -21 -59 -7 -69 24 -117 53 -154 91
-31 32 -35 42 -34 86 0 45 -1 49 -23 49 -32 0 -98 -35 -117 -62 -29 -41 -14
-86 56 -170 l39 -48 -118 0 c-167 0 -257 -28 -345 -108 -51 -46 -68 -85 -68
-155 0 -240 251 -503 521 -546 253 -42 499 20 939 236 l215 105 60 -23 c386
-145 599 -191 895 -190 362 0 700 110 700 228 0 31 -13 29 -127 -21 -327 -146
-797 -139 -1249 18 -182 64 -185 45 24 146 l182 89 43 -19 c83 -37 200 -53
341 -47 257 10 448 92 536 229 73 112 74 206 5 267 -30 26 -44 31 -89 31 -29
0 -73 -6 -97 -13 -46 -14 -224 -108 -482 -254 l-149 -84 -211 122 c-117 66
-214 123 -216 125 -2 2 24 64 58 137 83 185 111 303 79 335 -21 21 -78 13
-142 -20 -95 -51 -207 -169 -315 -335 -57 -88 -100 -143 -110 -143 -13 0 -112
139 -129 181 -2 4 35 37 82 73 152 119 241 242 253 349 6 49 -15 81 -60 92
-58 15 -195 -84 -302 -218 -56 -70 -71 -84 -77 -70 -4 10 -18 60 -32 111 -34
121 -69 195 -120 250 -56 61 -106 84 -194 90 -62 4 -73 7 -69 21 3 9 29 72 57
141 78 190 103 298 98 428 -3 91 -8 115 -30 158 -30 58 -91 116 -145 140 -52
22 -182 26 -275 9z m158 -131 c59 -28 128 -102 148 -159 50 -147 23 -320 -86
-540 -44 -87 -62 -111 -140 -186 -99 -95 -105 -113 -50 -140 46 -23 66 -15
120 51 65 80 113 110 176 110 69 0 124 -34 174 -110 111 -165 129 -366 56
-615 -14 -49 -26 -104 -27 -122 -1 -40 25 -70 75 -85 57 -17 68 -1 83 123 8
57 14 106 14 108 1 2 25 -31 54 -74 59 -89 127 -165 147 -165 27 0 108 99 207
255 106 167 197 286 234 306 22 11 22 11 16 -53 -11 -122 -92 -281 -173 -343
-42 -32 -51 -63 -30 -104 18 -34 38 -38 76 -16 56 32 100 17 278 -93 91 -57
119 -78 107 -84 -8 -5 -92 -45 -186 -89 l-171 -80 -277 110 c-238 94 -445 166
-570 198 l-34 8 41 29 c27 19 51 47 68 83 47 94 22 188 -85 320 -57 70 -127
123 -446 339 -286 193 -381 277 -433 384 -136 280 53 576 413 646 86 17 170
12 221 -12z m834 -1099 c0 -55 -19 -103 -62 -157 -62 -78 -135 -115 -177 -89
-29 19 176 291 220 291 16 0 19 -7 19 -45z m1516 -516 c81 -76 -3 -216 -160
-269 -128 -42 -308 -44 -428 -4 -27 9 -48 17 -46 19 6 5 500 266 521 275 33
14 87 4 113 -21z m-2193 -269 c54 -12 148 -37 210 -56 122 -39 597 -225 597
-235 0 -10 -194 -97 -333 -151 -71 -27 -190 -65 -265 -85 -121 -31 -152 -36
-267 -37 -154 -1 -197 10 -307 83 -155 102 -244 241 -250 390 -3 65 5 72 103
96 148 36 329 34 512 -5z"/>
<path d="M2161 2210 c-58 -42 -64 -65 -51 -174 6 -50 11 -142 11 -204 -1 -96
2 -114 16 -119 10 -4 23 2 34 16 61 75 117 452 73 495 -22 22 -35 20 -83 -14z"/>
</g>
</svg>
