<?xml version="1.0" encoding="utf-8"?>
<!-- Generator: Adobe Illustrator 18.1.1, SVG Export Plug-In . SVG Version: 6.00 Build 0)  -->
<svg version="1.1" id="Layer_1" xmlns="http://www.w3.org/2000/svg" xmlns:xlink="http://www.w3.org/1999/xlink" x="0px" y="0px"
	 viewBox="0 0 539.6 78" enable-background="new 0 0 539.6 78" xml:space="preserve">
<g>
	<linearGradient id="SVGID_1_" gradientUnits="userSpaceOnUse" x1="225.5979" y1="-45.0885" x2="333.9513" y2="45.8307">
		<stop  offset="0.2069" style="stop-color:#73E9EF"/>
		<stop  offset="0.249" style="stop-color:#74DCF0"/>
		<stop  offset="0.4385" style="stop-color:#7AA5F5"/>
		<stop  offset="0.6148" style="stop-color:#7F7AFA"/>
		<stop  offset="0.7726" style="stop-color:#825CFD"/>
		<stop  offset="0.9064" style="stop-color:#8449FE"/>
		<stop  offset="1" style="stop-color:#8542FF"/>
	</linearGradient>
	<path fill="url(#SVGID_1_)" d="M332.1,0c4.3,1.6,8.7,3.1,13,4.8c1.3,0.5,2.4,1.6,3.8,2.5c-2.6,4.2-5.1,8.3-7.7,12.5
		c-1.6-1-3-2.1-4.6-3c-3.8-2.2-7.8-3-12.1-1.6c-2.8,0.9-4.6,2.8-4.9,5.9c-0.4,3.3,1.4,5.2,4.1,6.3c4.7,1.9,9.4,3.6,14.1,5.4
		c6.3,2.5,11.3,6.3,13.1,13.4c4.2,16.3-7.2,31.1-24,31.7c-11.4,0.5-20.8-2.9-28.8-11.4c2.9-4,5.9-8.1,8.9-12.2
		c2.2,1.8,4.2,3.6,6.3,5.1c4.3,3,9,4.1,14.1,2.6c3.6-1,5.9-3.8,6.2-7c0.4-3.7-1.5-6.2-4.7-7.6c-4.3-1.8-8.7-3.4-13-5.1
		c-11-4.1-15.1-10.2-14.4-21.2c0.7-10.5,7.8-18.6,18-20.7c0.4-0.1,0.8-0.4,1.3-0.6C324.7,0,328.4,0,332.1,0z"/>
	<linearGradient id="SVGID_2_" gradientUnits="userSpaceOnUse" x1="99.704" y1="94.7703" x2="207.6662" y2="185.3614">
		<stop  offset="0.2069" style="stop-color:#73E9EF"/>
		<stop  offset="0.249" style="stop-color:#74DCF0"/>
		<stop  offset="0.4385" style="stop-color:#7AA5F5"/>
		<stop  offset="0.6148" style="stop-color:#7F7AFA"/>
		<stop  offset="0.7726" style="stop-color:#825CFD"/>
		<stop  offset="0.9064" style="stop-color:#8449FE"/>
		<stop  offset="1" style="stop-color:#8542FF"/>
	</linearGradient>
	<path fill="url(#SVGID_2_)" d="M0,1.8c16.5,0,32.9,0,49.6,0c0,4.9,0,9.6,0,14.6c-5.2,0-10.4,0-15.8,0c0,20,0,39.7,0,59.6
		c-5.9,0-11.4,0-17.2,0c0-19.7,0-39.4,0-59.6c-5.7,0-11.1,0-16.5,0C0,11.5,0,6.6,0,1.8z"/>
	<linearGradient id="SVGID_3_" gradientUnits="userSpaceOnUse" x1="191.7803" y1="-7.7898" x2="300.6568" y2="83.5685">
		<stop  offset="0.2069" style="stop-color:#73E9EF"/>
		<stop  offset="0.249" style="stop-color:#74DCF0"/>
		<stop  offset="0.4385" style="stop-color:#7AA5F5"/>
		<stop  offset="0.6148" style="stop-color:#7F7AFA"/>
		<stop  offset="0.7726" style="stop-color:#825CFD"/>
		<stop  offset="0.9064" style="stop-color:#8449FE"/>
		<stop  offset="1" style="stop-color:#8542FF"/>
	</linearGradient>
	<path fill="url(#SVGID_3_)" d="M228.6,76.1c-6,0-11.4,0-17.1,0c0-24.7,0-49.3,0-74.3c4.7,0,9.5-0.1,14.2,0.1c1,0,2,1.4,2.8,2.3
		c12.3,14.6,24.6,29.3,36.8,43.9c0.2,0.2,0.4,0.5,0.9,1.2c0-16.1,0-31.6,0-47.4c5.9,0,11.5,0,17.2,0c0,24.6,0,49.1,0,74.1
		c-4.8,0-9.6,0.1-14.4-0.1c-0.9,0-1.8-1.3-2.5-2.2c-11.8-14.1-23.5-28.2-35.2-42.2c-0.7-0.9-1.5-1.7-2.7-3.2
		C228.6,44.7,228.6,60.2,228.6,76.1z"/>
	<linearGradient id="SVGID_4_" gradientUnits="userSpaceOnUse" x1="120.676" y1="72.7872" x2="229.2932" y2="163.9279">
		<stop  offset="0.2069" style="stop-color:#73E9EF"/>
		<stop  offset="0.249" style="stop-color:#74DCF0"/>
		<stop  offset="0.4385" style="stop-color:#7AA5F5"/>
		<stop  offset="0.6148" style="stop-color:#7F7AFA"/>
		<stop  offset="0.7726" style="stop-color:#825CFD"/>
		<stop  offset="0.9064" style="stop-color:#8449FE"/>
		<stop  offset="1" style="stop-color:#8542FF"/>
	</linearGradient>
	<path fill="url(#SVGID_4_)" d="M61.6,2.3c11.1,0,22.2-1,32.9,0.2C110,4.4,118,22.1,110.4,35.8c-2.4,4.3-6.1,7-10.5,8.9
		c-0.9,0.4-1.8,0.7-2.9,1.2c3.8,5.1,7.4,10,11.1,14.9c3.7,4.9,7.4,9.8,11.3,15.1c-1,0.1-1.7,0.3-2.4,0.3c-5.5,0-10.9,0.1-16.4-0.1
		c-1.2,0-2.8-0.9-3.4-1.9c-5.6-7.9-11-15.9-16.4-23.9c-0.5-0.8-1.1-1.5-2.1-2.9c0,9.9,0,19.1,0,28.5c-5.8,0-11.3,0-17.1,0
		C61.6,51.4,61.6,26.7,61.6,2.3z M78.7,35.7c5.9-0.5,11.9,0.5,15.4-5.5c2.1-3.6,1.8-8.5-0.8-11.3c-4-4.4-9.3-3.8-14.6-3.6
		C78.7,22.2,78.7,28.7,78.7,35.7z"/>
	<linearGradient id="SVGID_5_" gradientUnits="userSpaceOnUse" x1="300.0451" y1="-129.0907" x2="408.6528" y2="-37.9581">
		<stop  offset="0.2069" style="stop-color:#73E9EF"/>
		<stop  offset="0.249" style="stop-color:#74DCF0"/>
		<stop  offset="0.4385" style="stop-color:#7AA5F5"/>
		<stop  offset="0.6148" style="stop-color:#7F7AFA"/>
		<stop  offset="0.7726" style="stop-color:#825CFD"/>
		<stop  offset="0.9064" style="stop-color:#8449FE"/>
		<stop  offset="1" style="stop-color:#8542FF"/>
	</linearGradient>
	<path fill="url(#SVGID_5_)" d="M498.6,47.5c0,9.9,0,19.1,0,28.5c-5.8,0-11.3,0-17,0c0-24.7,0-49.3,0-74.2c8.9,0,17.8-0.1,26.7,0
		c2.6,0,5.3,0.3,7.8,0.9c10.2,2.5,16.2,9.9,16.9,20.2c0.7,11.1-4,18.3-14.4,22.4c-0.4,0.1-0.7,0.3-1.4,0.7
		c7.4,9.9,14.8,19.8,22.5,30.2c-5,0-9.4-0.4-13.8,0.1c-5.5,0.7-8.9-1.3-11.7-6.1c-4.1-7-9-13.4-13.6-20.1
		C500.1,49.3,499.5,48.7,498.6,47.5z M498.8,15.3c0,6.9,0,13.6,0,20.4c5.7-0.4,11.7,0.5,15.1-5.3c2.1-3.6,2.3-7.6-0.4-11
		C509.7,14.5,504.2,15.2,498.8,15.3z"/>
	<linearGradient id="SVGID_6_" gradientUnits="userSpaceOnUse" x1="149.7874" y1="40.6217" x2="258.1045" y2="131.5106">
		<stop  offset="0.2069" style="stop-color:#73E9EF"/>
		<stop  offset="0.249" style="stop-color:#74DCF0"/>
		<stop  offset="0.4385" style="stop-color:#7AA5F5"/>
		<stop  offset="0.6148" style="stop-color:#7F7AFA"/>
		<stop  offset="0.7726" style="stop-color:#825CFD"/>
		<stop  offset="0.9064" style="stop-color:#8449FE"/>
		<stop  offset="1" style="stop-color:#8542FF"/>
	</linearGradient>
	<path fill="url(#SVGID_6_)" d="M124.8,76.1c4.2-10.5,8.2-20.5,12.3-30.5c5.6-13.8,11.2-27.6,16.7-41.4c0.7-1.8,1.4-2.6,3.5-2.5
		c4.4,0.2,8.8,0.1,13.5,0.1c9.7,24.6,19.3,49.3,29.2,74.4c-5.9,0-11.4,0.1-16.9-0.1c-0.6,0-1.5-1-1.8-1.8c-1.5-3.4-2.8-6.8-4.1-10.3
		c-0.5-1.4-1.2-1.9-2.8-1.9c-8,0.1-16,0-24,0.1c-0.8,0-2.1,0.9-2.5,1.7c-1.6,3.4-2.9,7-4.4,10.5c-0.3,0.8-1.4,1.7-2.2,1.7
		C136,76.2,130.6,76.1,124.8,76.1z M162.7,24.4c-3.2,8.6-6,16.3-9,24.3c6.1,0,11.8,0,17.8,0C168.7,40.7,165.8,33,162.7,24.4z"/>
	<linearGradient id="SVGID_7_" gradientUnits="userSpaceOnUse" x1="276.4301" y1="-101.5863" x2="384.6404" y2="-10.7871">
		<stop  offset="0.2069" style="stop-color:#73E9EF"/>
		<stop  offset="0.249" style="stop-color:#74DCF0"/>
		<stop  offset="0.4385" style="stop-color:#7AA5F5"/>
		<stop  offset="0.6148" style="stop-color:#7F7AFA"/>
		<stop  offset="0.7726" style="stop-color:#825CFD"/>
		<stop  offset="0.9064" style="stop-color:#8449FE"/>
		<stop  offset="1" style="stop-color:#8542FF"/>
	</linearGradient>
	<path fill="url(#SVGID_7_)" d="M423,1.9c14,0,27.9,0,41.8,0c0,4.8,0,9.4,0,14.4c-8.2,0-16.3,0-24.7,0c0,4.9,0,9.4,0,14.2
		c7.8,0,15.5,0,23.3,0c0,4.9,0,9.5,0,14.5c-7.7,0-15.5,0-23.4,0c0,5.6,0,10.8,0,16.4c8.1,0,16.3,0,24.6,0c0,5,0,9.7,0,14.6
		c-13.9,0-27.7,0-41.8,0C423,51.4,423,26.7,423,1.9z"/>
	<linearGradient id="SVGID_8_" gradientUnits="userSpaceOnUse" x1="252.9983" y1="-73.6904" x2="360.2932" y2="16.3407">
		<stop  offset="0.2069" style="stop-color:#73E9EF"/>
		<stop  offset="0.249" style="stop-color:#74DCF0"/>
		<stop  offset="0.4385" style="stop-color:#7AA5F5"/>
		<stop  offset="0.6148" style="stop-color:#7F7AFA"/>
		<stop  offset="0.7726" style="stop-color:#825CFD"/>
		<stop  offset="0.9064" style="stop-color:#8449FE"/>
		<stop  offset="1" style="stop-color:#8542FF"/>
	</linearGradient>
	<path fill="url(#SVGID_8_)" d="M383.8,45.1c0,10.5,0,20.6,0,30.9c-5.7,0-11.3,0-17,0c0-24.6,0-49.2,0-74c13.5,0,27.1,0,40.9,0
		c0,4.7,0,9.4,0,14.3c-7.9,0-15.7,0-23.7,0c0,4.7,0,9.2,0,14.1c7.2,0,14.4,0,21.8,0c0,5,0,9.7,0,14.6
		C398.5,45.1,391.3,45.1,383.8,45.1z"/>
</g>
</svg>
