<svg version="1" xmlns="http://www.w3.org/2000/svg" width="469.333" height="360" viewBox="0 0 352.000000 270.000000"><g fill="#14213c"><path d="M65.8 1.5c-26.3 5-49.6 22.2-60.9 45C1.8 52.7.8 56.1.3 61.6c-1.2 14.9 3.5 25.3 18.2 40 8.5 8.5 13.9 12.6 36 27.4 29.5 19.7 39.6 28.6 45.3 39.9 3.6 7.3 3.9 10 1.5 13-1.7 2.1-2 2.1-5.9.7-6.9-2.4-11.7-5.3-15.4-9.1-3.1-3.2-3.5-4.2-3.4-8.6 0-4.5-.1-4.9-2.3-4.9-3.2 0-9.8 3.5-11.7 6.2-2.9 4.1-1.4 8.6 5.6 17l3.9 4.8H60.3c-16.7 0-25.7 2.8-34.5 10.8-5.1 4.6-6.8 8.5-6.8 15.5 0 24 25.1 50.3 52.1 54.6 25.3 4.2 49.9-2 93.9-23.6l21.5-10.5 6 2.3c38.6 14.5 59.9 19.1 89.5 19 36.2 0 70-11 70-22.8 0-3.1-1.3-2.9-12.7 2.1-32.7 14.6-79.7 13.9-124.9-1.8-18.2-6.4-18.5-4.5 2.4-14.6l18.2-8.9 4.3 1.9c8.3 3.7 20 5.3 34.1 4.7 25.7-1 44.8-9.2 53.6-22.9 7.3-11.2 7.4-20.6.5-26.7-3-2.6-4.4-3.1-8.9-3.1-2.9 0-7.3.6-9.7 1.3-4.6 1.4-22.4 10.8-48.2 25.4l-14.9 8.4-21.1-12.2c-11.7-6.6-21.4-12.3-21.6-12.5-.2-.2 2.4-6.4 5.8-13.7 8.3-18.5 11.1-30.3 7.9-33.5-2.1-2.1-7.8-1.3-14.2 2-9.5 5.1-20.7 16.9-31.5 33.5-5.7 8.8-10 14.3-11 14.3-1.3 0-11.2-13.9-12.9-18.1-.2-.4 3.5-3.7 8.2-7.3 15.2-11.9 24.1-24.2 25.3-34.9.6-4.9-1.5-8.1-6-9.2-5.8-1.5-19.5 8.4-30.2 21.8-5.6 7-7.1 8.4-7.7 7-.4-1-1.8-6-3.2-11.1-3.4-12.1-6.9-19.5-12-25-5.6-6.1-10.6-8.4-19.4-9-6.2-.4-7.3-.7-6.9-2.1.3-.9 2.9-7.2 5.7-14.1 7.8-19 10.3-29.8 9.8-42.8-.3-9.1-.8-11.5-3-15.8-3-5.8-9.1-11.6-14.5-14C88.1.2 75.1-.2 65.8 1.5zm15.8 13.1c5.9 2.8 12.8 10.2 14.8 15.9 5 14.7 2.3 32-8.6 54-4.4 8.7-6.2 11.1-14 18.6-9.9 9.5-10.5 11.3-5 14 4.6 2.3 6.6 1.5 12-5.1 6.5-8 11.3-11 17.6-11 6.9 0 12.4 3.4 17.4 11 11.1 16.5 12.9 36.6 5.6 61.5-1.4 4.9-2.6 10.4-2.7 12.2-.1 4 2.5 7 7.5 8.5 5.7 1.7 6.8.1 8.3-12.3.8-5.7 1.4-10.6 1.4-10.8.1-.2 2.5 3.1 5.4 7.4 5.9 8.9 12.7 16.5 14.7 16.5 2.7 0 10.8-9.9 20.7-25.5 10.6-16.7 19.7-28.6 23.4-30.6 2.2-1.1 2.2-1.1 1.6 5.3-1.1 12.2-9.2 28.1-17.3 34.3-4.2 3.2-5.1 6.3-3 10.4 1.8 3.4 3.8 3.8 7.6 1.6 5.6-3.2 10-1.7 27.8 9.3 9.1 5.7 11.9 7.8 10.7 8.4-.8.5-9.2 4.5-18.6 8.9l-17.1 8-27.7-11c-23.8-9.4-44.5-16.6-57-19.8l-3.4-.8 4.1-2.9c2.7-1.9 5.1-4.7 6.8-8.3 4.7-9.4 2.2-18.8-8.5-32-5.7-7-12.7-12.3-44.6-33.9C32.9 97.1 23.4 88.7 18.2 78 4.6 50 23.5 20.4 59.5 13.4c8.6-1.7 17-1.2 22.1 1.2zM165 124.5c0 5.5-1.9 10.3-6.2 15.7-6.2 7.8-13.5 11.5-17.7 8.9-2.9-1.9 17.6-29.1 22-29.1 1.6 0 1.9.7 1.9 4.5zm151.6 51.6c8.1 7.6-.3 21.6-16 26.9-12.8 4.2-30.8 4.4-42.8.4-2.7-.9-4.8-1.7-4.6-1.9.6-.5 50-26.6 52.1-27.5 3.3-1.4 8.7-.4 11.3 2.1zM97.3 203c5.4 1.2 14.8 3.7 21 5.6 12.2 3.9 59.7 22.5 59.7 23.5s-19.4 9.7-33.3 15.1c-7.1 2.7-19 6.5-26.5 8.5-12.1 3.1-15.2 3.6-26.7 3.7-15.4.1-19.7-1-30.7-8.3-15.5-10.2-24.4-24.1-25-39-.3-6.5.5-7.2 10.3-9.6 14.8-3.6 32.9-3.4 51.2.5z"/><path d="M216.1 49c-5.8 4.2-6.4 6.5-5.1 17.4.6 5 1.1 14.2 1.1 20.4-.1 9.6.2 11.4 1.6 11.9 1 .4 2.3-.2 3.4-1.6 6.1-7.5 11.7-45.2 7.3-49.5-2.2-2.2-3.5-2-8.3 1.4z"/></g></svg>