<svg xmlns="http://www.w3.org/2000/svg" viewBox="0 0 539.6 78"><linearGradient id="a" gradientUnits="userSpaceOnUse" x1="225.598" y1="-45.089" x2="333.951" y2="45.831"><stop offset=".207" stop-color="#73e9ef"/><stop offset=".249" stop-color="#74dcf0"/><stop offset=".439" stop-color="#7aa5f5"/><stop offset=".615" stop-color="#7f7afa"/><stop offset=".773" stop-color="#825cfd"/><stop offset=".906" stop-color="#8449fe"/><stop offset="1" stop-color="#8542ff"/></linearGradient><path fill="url(#a)" d="M332.1 0c4.3 1.6 8.7 3.1 13 4.8 1.3.5 2.4 1.6 3.8 2.5-2.6 4.2-5.1 8.3-7.7 12.5-1.6-1-3-2.1-4.6-3-3.8-2.2-7.8-3-12.1-1.6-2.8.9-4.6 2.8-4.9 5.9-.4 3.3 1.4 5.2 4.1 6.3 4.7 1.9 9.4 3.6 14.1 5.4 6.3 2.5 11.3 6.3 13.1 13.4 4.2 16.3-7.2 31.1-24 31.7-11.4.5-20.8-2.9-28.8-11.4 2.9-4 5.9-8.1 8.9-12.2 2.2 1.8 4.2 3.6 6.3 5.1 4.3 3 9 4.1 14.1 2.6 3.6-1 5.9-3.8 6.2-7 .4-3.7-1.5-6.2-4.7-7.6-4.3-1.8-8.7-3.4-13-5.1-11-4.1-15.1-10.2-14.4-21.2.7-10.5 7.8-18.6 18-20.7.4-.1.8-.4 1.3-.6 3.9.2 7.6.2 11.3.2z"/><linearGradient id="b" gradientUnits="userSpaceOnUse" x1="99.704" y1="94.77" x2="207.666" y2="185.361"><stop offset=".207" stop-color="#73e9ef"/><stop offset=".249" stop-color="#74dcf0"/><stop offset=".439" stop-color="#7aa5f5"/><stop offset=".615" stop-color="#7f7afa"/><stop offset=".773" stop-color="#825cfd"/><stop offset=".906" stop-color="#8449fe"/><stop offset="1" stop-color="#8542ff"/></linearGradient><path fill="url(#b)" d="M0 1.8h49.6v14.6H33.8V76H16.6V16.4H.1C0 11.5 0 6.6 0 1.8z"/><linearGradient id="c" gradientUnits="userSpaceOnUse" x1="191.78" y1="-7.79" x2="300.657" y2="83.569"><stop offset=".207" stop-color="#73e9ef"/><stop offset=".249" stop-color="#74dcf0"/><stop offset=".439" stop-color="#7aa5f5"/><stop offset=".615" stop-color="#7f7afa"/><stop offset=".773" stop-color="#825cfd"/><stop offset=".906" stop-color="#8449fe"/><stop offset="1" stop-color="#8542ff"/></linearGradient><path fill="url(#c)" d="M228.6 76.1h-17.1V1.8c4.7 0 9.5-.1 14.2.1 1 0 2 1.4 2.8 2.3 12.3 14.6 24.6 29.3 36.8 43.9.2.2.4.5.9 1.2V1.9h17.2V76c-4.8 0-9.6.1-14.4-.1-.9 0-1.8-1.3-2.5-2.2-11.8-14.1-23.5-28.2-35.2-42.2-.7-.9-1.5-1.7-2.7-3.2v47.8z"/><linearGradient id="d" gradientUnits="userSpaceOnUse" x1="120.676" y1="72.787" x2="229.293" y2="163.928"><stop offset=".207" stop-color="#73e9ef"/><stop offset=".249" stop-color="#74dcf0"/><stop offset=".439" stop-color="#7aa5f5"/><stop offset=".615" stop-color="#7f7afa"/><stop offset=".773" stop-color="#825cfd"/><stop offset=".906" stop-color="#8449fe"/><stop offset="1" stop-color="#8542ff"/></linearGradient><path fill="url(#d)" d="M61.6 2.3c11.1 0 22.2-1 32.9.2C110 4.4 118 22.1 110.4 35.8c-2.4 4.3-6.1 7-10.5 8.9-.9.4-1.8.7-2.9 1.2 3.8 5.1 7.4 10 11.1 14.9 3.7 4.9 7.4 9.8 11.3 15.1-1 .1-1.7.3-2.4.3-5.5 0-10.9.1-16.4-.1-1.2 0-2.8-.9-3.4-1.9-5.6-7.9-11-15.9-16.4-23.9-.5-.8-1.1-1.5-2.1-2.9v28.5H61.6V2.3zm17.1 33.4c5.9-.5 11.9.5 15.4-5.5 2.1-3.6 1.8-8.5-.8-11.3-4-4.4-9.3-3.8-14.6-3.6v20.4z"/><linearGradient id="e" gradientUnits="userSpaceOnUse" x1="300.045" y1="-129.091" x2="408.653" y2="-37.958"><stop offset=".207" stop-color="#73e9ef"/><stop offset=".249" stop-color="#74dcf0"/><stop offset=".439" stop-color="#7aa5f5"/><stop offset=".615" stop-color="#7f7afa"/><stop offset=".773" stop-color="#825cfd"/><stop offset=".906" stop-color="#8449fe"/><stop offset="1" stop-color="#8542ff"/></linearGradient><path fill="url(#e)" d="M498.6 47.5V76h-17V1.8c8.9 0 17.8-.1 26.7 0 2.6 0 5.3.3 7.8.9 10.2 2.5 16.2 9.9 16.9 20.2.7 11.1-4 18.3-14.4 22.4-.4.1-.7.3-1.4.7 7.4 9.9 14.8 19.8 22.5 30.2-5 0-9.4-.4-13.8.1-5.5.7-8.9-1.3-11.7-6.1-4.1-7-9-13.4-13.6-20.1-.5-.8-1.1-1.4-2-2.6zm.2-32.2v20.4c5.7-.4 11.7.5 15.1-5.3 2.1-3.6 2.3-7.6-.4-11-3.8-4.9-9.3-4.2-14.7-4.1z"/><linearGradient id="f" gradientUnits="userSpaceOnUse" x1="149.787" y1="40.622" x2="258.104" y2="131.511"><stop offset=".207" stop-color="#73e9ef"/><stop offset=".249" stop-color="#74dcf0"/><stop offset=".439" stop-color="#7aa5f5"/><stop offset=".615" stop-color="#7f7afa"/><stop offset=".773" stop-color="#825cfd"/><stop offset=".906" stop-color="#8449fe"/><stop offset="1" stop-color="#8542ff"/></linearGradient><path fill="url(#f)" d="M124.8 76.1c4.2-10.5 8.2-20.5 12.3-30.5 5.6-13.8 11.2-27.6 16.7-41.4.7-1.8 1.4-2.6 3.5-2.5 4.4.2 8.8.1 13.5.1 9.7 24.6 19.3 49.3 29.2 74.4-5.9 0-11.4.1-16.9-.1-.6 0-1.5-1-1.8-1.8-1.5-3.4-2.8-6.8-4.1-10.3-.5-1.4-1.2-1.9-2.8-1.9-8 .1-16 0-24 .1-.8 0-2.1.9-2.5 1.7-1.6 3.4-2.9 7-4.4 10.5-.3.8-1.4 1.7-2.2 1.7-5.3.1-10.7 0-16.5 0zm37.9-51.7c-3.2 8.6-6 16.3-9 24.3h17.8c-2.8-8-5.7-15.7-8.8-24.3z"/><linearGradient id="g" gradientUnits="userSpaceOnUse" x1="276.43" y1="-101.586" x2="384.64" y2="-10.787"><stop offset=".207" stop-color="#73e9ef"/><stop offset=".249" stop-color="#74dcf0"/><stop offset=".439" stop-color="#7aa5f5"/><stop offset=".615" stop-color="#7f7afa"/><stop offset=".773" stop-color="#825cfd"/><stop offset=".906" stop-color="#8449fe"/><stop offset="1" stop-color="#8542ff"/></linearGradient><path fill="url(#g)" d="M423 1.9h41.8v14.4h-24.7v14.2h23.3V45H440v16.4h24.6V76h-41.8c.2-24.6.2-49.3.2-74.1z"/><linearGradient id="h" gradientUnits="userSpaceOnUse" x1="252.998" y1="-73.69" x2="360.293" y2="16.341"><stop offset=".207" stop-color="#73e9ef"/><stop offset=".249" stop-color="#74dcf0"/><stop offset=".439" stop-color="#7aa5f5"/><stop offset=".615" stop-color="#7f7afa"/><stop offset=".773" stop-color="#825cfd"/><stop offset=".906" stop-color="#8449fe"/><stop offset="1" stop-color="#8542ff"/></linearGradient><path fill="url(#h)" d="M383.8 45.1V76h-17V2h40.9v14.3H384v14.1h21.8V45c-7.3.1-14.5.1-22 .1z"/></svg>